# xmcd
#
# Track frame offsets: 
#        150
#        17920
#        32865
#        51432
#        69360
#        87712
#        105532
#        123810
#        138317
#        162667
#        178637
#
# Disc length: 2835 seconds
#
# Revision: 3
# Processed by: cddbd v1.5.2PL0 Copyright (c) Steve Scherf et al.
# Submitted via: ExactAudioCopy v1.0b3
#
DISCID=990b110b
DTITLE=Various Artist - L.A. Blues Authority - Hats Off To Stevie Ray
DYEAR=1993
DGENRE=Blues Rock
TTITLE0=Cold Shot - Pat Travers
TTITLE1=Empty Arms - Tony Spinner
TTITLE2=Telephone Song - Craig Erickson
TTITLE3=Lenny - Steve Hunter
TTITLE4=The Things (That) I Used To Do - Frank Marino
TTITLE5=Pride and Joy - Rick Derringer
TTITLE6=Crossfire - Jon Butcher
TTITLE7=Tell Me - Kevin Russell
TTITLE8=Texas Flood - Ricky Medlocke
TTITLE9=Look At Little Sister - Leslie West
TTITLE10=Blues For Stevie - Various Artists
EXTD=
EXTT0=
EXTT1=
EXTT2=
EXTT3=
EXTT4=
EXTT5=
EXTT6=
EXTT7=Kevin Russell
EXTT8=
EXTT9=
EXTT10=
PLAYORDER=
